<svg fill="#252d30" xmlns:dc="http://purl.org/dc/elements/1.1/" xmlns:cc="http://creativecommons.org/ns#" xmlns:rdf="http://www.w3.org/1999/02/22-rdf-syntax-ns#" xmlns:svg="http://www.w3.org/2000/svg" xmlns="http://www.w3.org/2000/svg" xmlns:sodipodi="http://sodipodi.sourceforge.net/DTD/sodipodi-0.dtd" xmlns:inkscape="http://www.inkscape.org/namespaces/inkscape" version="1.1" x="0px" y="0px" viewBox="0 0 100 100"><g transform="translate(0,-952.36218)"><path d="m 50,958.36226 c -8.81211,0 -16,7.18789 -16,16 l 0,5.99984 -9,0 c -1.65145,0.0122 -2.86998,1.54799 -3,2.75 l -5,60 c -0.13797,1.6519 1.34235,3.2556 3,3.25 l 60,0 c 1.65765,0.01 3.13797,-1.5981 3,-3.25 l -5,-60 c -0.12436,-1.48562 -1.50919,-2.75505 -3,-2.75 l -9,0 0,-5.99984 c 0,-8.81211 -7.18789,-16 -16,-16 z m 0,6 c 5.59189,0 10,4.40811 10,10 l 0,5.99984 -20,0 0,-5.99984 c 0,-5.59189 4.40811,-10 10,-10 z m -22.21875,21.99984 6.21875,0 0,2.6875 c -2.35366,1.13491 -4,3.55178 -4,6.3125 0,3.83045 3.16951,7 7,7 3.83049,0 7,-3.16955 7,-7 0,-2.76072 -1.64634,-5.17759 -4,-6.3125 l 0,-2.6875 20,0 0,2.6875 c -2.35366,1.13491 -4,3.55178 -4,6.3125 0,3.83045 3.16951,7 7,7 3.83049,0 7,-3.16955 7,-7 0,-2.76072 -1.64634,-5.17759 -4,-6.3125 l 0,-2.6875 6.21875,0 4.5,54 -53.4375,0 z m 9.21875,8 c 0.58779,0 1,0.41225 1,1 0,0.58775 -0.41221,1 -1,1 -0.58779,0 -1,-0.41225 -1,-1 0,-0.58775 0.41221,-1 1,-1 z m 26,0 c 0.58779,0 1,0.41225 1,1 0,0.58775 -0.41221,1 -1,1 -0.58779,0 -1,-0.41225 -1,-1 0,-0.58775 0.41221,-1 1,-1 z" style="text-indent:0;text-transform:none;direction:ltr;block-progression:tb;baseline-shift:baseline;color:#252d30;enable-background:accumulate;" fill="#252d30" fill-opacity="1" stroke="none" marker="none" visibility="visible" display="inline" overflow="visible"></path></g></svg>